<?xml version="1.0" encoding="UTF-8" standalone="no"?>
<!-- Created with Inkscape (http://www.inkscape.org/) -->

<svg
   version="1.1"
   id="svg2"
   width="257.15491"
   height="207.81142"
   viewBox="0 0 257.15491 207.81142"
   sodipodi:docname="favicon.ico.svg"
   inkscape:version="1.1 (c4e8f9ed74, 2021-05-24)"
   inkscape:export-filename="/home/chadnaps/Documents/ChadNaps-Portfolio-Site/public/favicon2.png"
   inkscape:export-xdpi="96"
   inkscape:export-ydpi="96"
   xmlns:inkscape="http://www.inkscape.org/namespaces/inkscape"
   xmlns:sodipodi="http://sodipodi.sourceforge.net/DTD/sodipodi-0.dtd"
   xmlns="http://www.w3.org/2000/svg"
   xmlns:svg="http://www.w3.org/2000/svg">
  <defs
     id="defs6" />
  <sodipodi:namedview
     id="namedview4"
     pagecolor="#ffffff"
     bordercolor="#666666"
     borderopacity="1.0"
     inkscape:pageshadow="2"
     inkscape:pageopacity="0.0"
     inkscape:pagecheckerboard="0"
     showgrid="false"
     inkscape:zoom="4"
     inkscape:cx="126.75"
     inkscape:cy="101"
     inkscape:window-width="1920"
     inkscape:window-height="1015"
     inkscape:window-x="0"
     inkscape:window-y="0"
     inkscape:window-maximized="1"
     inkscape:current-layer="svg2" />
  <g
     inkscape:groupmode="layer"
     inkscape:label="Image"
     id="g8"
     transform="translate(2.9033872,2.7241379)"
     style="display:inline">
    <path
       style="fill:#0000db;fill-opacity:1;stroke-width:0.294364"
       d="M 78.287694,189.14915 135.12719,-0.51705501 173.06043,10.850845 116.22093,200.51706 Z"
       id="path956"
       sodipodi:nodetypes="ccccc" />
    <path
       style="fill:#0000db;fill-opacity:1;stroke-width:0.297337"
       d="M -2.9033872,100.41153 62.634556,38.673385 87.949813,65.199907 c -40.468374,35.263593 0,-0.157645 -40.468374,35.211623 l 38.917881,34.25371 c -24.953213,26.66138 0,0 -24.953213,26.66138 -64.3494942,-60.96706 0,0.052 -64.3494942,-60.91509 z"
       id="path995"
       sodipodi:nodetypes="ccccccc" />
    <path
       style="fill:#0000db;fill-opacity:1;stroke-width:0.297337"
       d="M 254.25153,100.41153 188.71359,38.673385 163.39833,65.199907 c 40.46838,35.263593 0,-0.157645 40.46838,35.211623 l -38.91788,34.25371 c 24.95321,26.66138 0,0 24.95321,26.66138 64.34949,-60.96706 0,0.052 64.34949,-60.91509 z"
       id="path3879"
       sodipodi:nodetypes="ccccccc" />
  </g>
</svg>
